{
    "asset" : {
        "generator" : "Khronos glTF Blender I/O v3.4.50",
        "version" : "2.0"
    },
    "scene" : 0,
    "scenes" : [
        {
            "name" : "Scene",
            "nodes" : [
                0
            ]
        }
    ],
    "nodes" : [
        {
            "mesh" : 0,
            "name" : "Coin",
            "rotation" : [
                0.7070716619491577,
                -0.007049655541777611,
                0.007049655541777611,
                0.7070716619491577
            ],
            "scale" : [
                0.0038228146731853485,
                0.0038228146731853485,
                0.0038653728552162647
            ],
            "translation" : [
                0.06661026179790497,
                0.9216434359550476,
                -0.04752275347709656
            ]
        }
    ],
    "materials" : [
        {
            "doubleSided" : true,
            "name" : "bitcoin.004",
            "pbrMetallicRoughness" : {
                "baseColorFactor" : [
                    0.8000000715255737,
                    0.2635965943336487,
                    0.04731866344809532,
                    1
                ],
                "metallicFactor" : 0.9109588861465454,
                "roughnessFactor" : 0.5272727012634277
            }
        },
        {
            "doubleSided" : true,
            "name" : "bitcoin.005",
            "pbrMetallicRoughness" : {
                "baseColorFactor" : [
                    0.8275573253631592,
                    0.6757665276527405,
                    0.25086480379104614,
                    1
                ],
                "roughnessFactor" : 0.4000000059604645
            }
        }
    ],
    "meshes" : [
        {
            "name" : "Circle.188",
            "primitives" : [
                {
                    "attributes" : {
                        "POSITION" : 0,
                        "TEXCOORD_0" : 1,
                        "NORMAL" : 2
                    },
                    "indices" : 3,
                    "material" : 0
                },
                {
                    "attributes" : {
                        "POSITION" : 4,
                        "TEXCOORD_0" : 5,
                        "NORMAL" : 6
                    },
                    "indices" : 7,
                    "material" : 1
                }
            ]
        }
    ],
    "accessors" : [
        {
            "bufferView" : 0,
            "componentType" : 5126,
            "count" : 4502,
            "max" : [
                110.71784210205078,
                67.68611907958984,
                118.0348129272461
            ],
            "min" : [
                -107.98210144042969,
                -68.4086685180664,
                -117.62659454345703
            ],
            "type" : "VEC3"
        },
        {
            "bufferView" : 1,
            "componentType" : 5126,
            "count" : 4502,
            "type" : "VEC2"
        },
        {
            "bufferView" : 2,
            "componentType" : 5126,
            "count" : 4502,
            "type" : "VEC3"
        },
        {
            "bufferView" : 3,
            "componentType" : 5123,
            "count" : 19584,
            "type" : "SCALAR"
        },
        {
            "bufferView" : 4,
            "componentType" : 5126,
            "count" : 851,
            "max" : [
                24.672225952148438,
                22.444719314575195,
                44.809574127197266
            ],
            "min" : [
                -23.0593318939209,
                -6.718002796173096,
                -44.401283264160156
            ],
            "type" : "VEC3"
        },
        {
            "bufferView" : 5,
            "componentType" : 5126,
            "count" : 851,
            "type" : "VEC2"
        },
        {
            "bufferView" : 6,
            "componentType" : 5126,
            "count" : 851,
            "type" : "VEC3"
        },
        {
            "bufferView" : 7,
            "componentType" : 5123,
            "count" : 3555,
            "type" : "SCALAR"
        }
    ],
    "bufferViews" : [
        {
            "buffer" : 0,
            "byteLength" : 54024,
            "byteOffset" : 0,
            "target" : 34962
        },
        {
            "buffer" : 0,
            "byteLength" : 36016,
            "byteOffset" : 54024,
            "target" : 34962
        },
        {
            "buffer" : 0,
            "byteLength" : 54024,
            "byteOffset" : 90040,
            "target" : 34962
        },
        {
            "buffer" : 0,
            "byteLength" : 39168,
            "byteOffset" : 144064,
            "target" : 34963
        },
        {
            "buffer" : 0,
            "byteLength" : 10212,
            "byteOffset" : 183232,
            "target" : 34962
        },
        {
            "buffer" : 0,
            "byteLength" : 6808,
            "byteOffset" : 193444,
            "target" : 34962
        },
        {
            "buffer" : 0,
            "byteLength" : 10212,
            "byteOffset" : 200252,
            "target" : 34962
        },
        {
            "buffer" : 0,
            "byteLength" : 7110,
            "byteOffset" : 210464,
            "target" : 34963
        }
    ],
    "buffers" : [
        {
            "byteLength" : 217576,
            "uri" : "Dollar Separate.bin"
        }
    ]
}
